<svg width="1512" height="350" viewBox="0 0 1512 350" fill="none" xmlns="http://www.w3.org/2000/svg">
<path fill-rule="evenodd" clip-rule="evenodd" d="M557.434 103.004C562.508 102.051 567.784 101.612 573.188 101.758C611.439 102.784 642.838 133.779 644.359 172.009C646.008 213.83 612.593 248.269 571.137 248.269C566.465 248.269 561.885 247.829 557.452 246.986C523.525 240.575 497.859 210.771 497.859 174.995C497.859 139.219 523.506 109.415 557.434 103.004ZM573.17 231.178C572.401 232.167 573.207 233.596 574.452 233.522C605.302 231.8 629.758 206.265 629.758 174.995C629.758 143.726 605.284 118.19 574.434 116.468C573.188 116.394 572.401 117.823 573.17 118.813C585.243 134.31 592.424 153.819 592.424 174.995C592.424 196.171 585.224 215.662 573.17 231.178Z" fill="#E2DFE9"/>
<path d="M950.105 210.863L960.457 203.321C964.598 212.342 974.062 217.814 984.118 217.814C993.139 217.814 1001.12 213.969 1001.12 205.539C1001.12 197.11 993.731 195.927 981.013 193.265C968.295 190.456 954.986 187.646 954.986 171.822C954.986 158.069 966.964 148.457 983.379 148.457C997.28 148.457 1008.67 155.26 1013.25 164.428L1003.79 171.97C999.794 164.28 992.548 159.4 982.787 159.4C973.914 159.4 967.999 163.837 967.999 170.787C967.999 178.033 974.802 179.364 985.597 181.73C998.906 184.836 1014.14 187.498 1014.14 204.356C1014.14 219.145 1000.68 228.905 984.118 228.905C970.07 228.905 956.021 222.842 950.105 210.863Z" fill="#71B1FF"/>
<path d="M888.973 188.681C888.973 206.279 898.438 217.222 912.191 217.222C922.838 217.222 929.197 210.42 931.416 200.807L943.246 206.279C939.549 219.145 928.31 228.905 912.191 228.905C890.6 228.905 875.664 212.49 875.664 188.681C875.664 164.724 890.6 148.457 912.191 148.457C928.31 148.457 939.253 157.774 942.95 170.639L931.416 176.407C929.197 166.942 922.838 159.992 912.191 159.992C898.438 159.992 888.973 170.935 888.973 188.681Z" fill="#71B1FF"/>
<path d="M864.062 188.681C864.062 212.638 849.274 228.905 828.127 228.905C806.98 228.905 792.191 212.638 792.191 188.681C792.191 164.724 806.98 148.457 828.127 148.457C849.274 148.457 864.062 164.724 864.062 188.681ZM805.649 188.681C805.649 206.279 814.522 217.518 828.127 217.518C841.732 217.518 850.605 206.279 850.605 188.681C850.605 170.935 841.732 159.696 828.127 159.696C814.522 159.696 805.649 170.935 805.649 188.681Z" fill="#71B1FF"/>
<path d="M694.418 227.273V121.094H728.135C760.373 121.094 780.781 141.797 780.781 174.183C780.781 206.57 760.373 227.273 728.135 227.273H694.418ZM708.319 214.999H728.135C752.24 214.999 766.88 198.88 766.88 174.183C766.88 149.339 752.24 133.368 727.987 133.368H708.319V214.999Z" fill="#71B1FF"/>
</svg>
