<svg width="1512" height="350" viewBox="0 0 1512 350" fill="none" xmlns="http://www.w3.org/2000/svg">
<path fill-rule="evenodd" clip-rule="evenodd" d="M372.797 103.004C377.872 102.051 383.148 101.612 388.552 101.758C426.802 102.784 458.202 133.779 459.722 172.009C461.371 213.83 427.957 248.269 386.5 248.269C381.829 248.269 377.249 247.829 372.815 246.986C338.888 240.575 313.223 210.771 313.223 174.995C313.223 139.219 338.87 109.415 372.797 103.004ZM388.533 231.178C387.764 232.167 388.57 233.596 389.816 233.522C420.665 231.8 445.122 206.265 445.122 174.995C445.122 143.726 420.647 118.19 389.797 116.468C388.552 116.394 387.764 117.823 388.533 118.813C400.606 134.31 407.787 153.819 407.787 174.995C407.787 196.171 400.587 215.662 388.533 231.178Z" fill="#101010"/>
<path d="M1134.74 210.863L1145.09 203.321C1149.23 212.342 1158.7 217.814 1168.76 217.814C1177.78 217.814 1185.76 213.969 1185.76 205.539C1185.76 197.11 1178.37 195.927 1165.65 193.265C1152.93 190.456 1139.62 187.646 1139.62 171.822C1139.62 158.069 1151.6 148.457 1168.02 148.457C1181.92 148.457 1193.3 155.26 1197.89 164.428L1188.42 171.97C1184.43 164.28 1177.18 159.4 1167.42 159.4C1158.55 159.4 1152.64 163.837 1152.64 170.787C1152.64 178.033 1159.44 179.364 1170.23 181.73C1183.54 184.836 1198.78 187.498 1198.78 204.356C1198.78 219.145 1185.32 228.905 1168.76 228.905C1154.71 228.905 1140.66 222.842 1134.74 210.863Z" fill="#71B1FF"/>
<path d="M1073.61 188.681C1073.61 206.279 1083.08 217.222 1096.83 217.222C1107.48 217.222 1113.84 210.42 1116.06 200.807L1127.89 206.279C1124.19 219.145 1112.95 228.905 1096.83 228.905C1075.24 228.905 1060.3 212.49 1060.3 188.681C1060.3 164.724 1075.24 148.457 1096.83 148.457C1112.95 148.457 1123.89 157.774 1127.59 170.639L1116.06 176.407C1113.84 166.942 1107.48 159.992 1096.83 159.992C1083.08 159.992 1073.61 170.935 1073.61 188.681Z" fill="#71B1FF"/>
<path d="M1048.7 188.681C1048.7 212.638 1033.91 228.905 1012.76 228.905C991.616 228.905 976.828 212.638 976.828 188.681C976.828 164.724 991.616 148.457 1012.76 148.457C1033.91 148.457 1048.7 164.724 1048.7 188.681ZM990.285 188.681C990.285 206.279 999.158 217.518 1012.76 217.518C1026.37 217.518 1035.24 206.279 1035.24 188.681C1035.24 170.935 1026.37 159.696 1012.76 159.696C999.158 159.696 990.285 170.935 990.285 188.681Z" fill="#71B1FF"/>
<path d="M879.055 227.273V121.094H912.772C945.01 121.094 965.418 141.797 965.418 174.183C965.418 206.57 945.01 227.273 912.772 227.273H879.055ZM892.956 214.999H912.772C936.877 214.999 951.517 198.88 951.517 174.183C951.517 149.339 936.877 133.368 912.624 133.368H892.956V214.999Z" fill="#71B1FF"/>
<path d="M781.587 121.094V186.014L815.895 149.931H832.458L802.29 180.394L834.972 227.273H819.444L792.826 190.007L781.587 201.394V227.273H768.277V121.094H781.587Z" fill="#71B1FF"/>
<path d="M687.777 210.863L698.129 203.321C702.27 212.342 711.734 217.814 721.79 217.814C730.811 217.814 738.797 213.969 738.797 205.539C738.797 197.11 731.403 195.927 718.685 193.265C705.967 190.456 692.657 187.646 692.657 171.822C692.657 158.069 704.636 148.457 721.051 148.457C734.952 148.457 746.339 155.26 750.923 164.428L741.458 171.97C737.466 164.28 730.219 159.4 720.459 159.4C711.586 159.4 705.671 163.837 705.671 170.787C705.671 178.033 712.474 179.364 723.269 181.73C736.578 184.836 751.81 187.498 751.81 204.356C751.81 219.145 738.353 228.905 721.79 228.905C707.741 228.905 693.693 222.842 687.777 210.863Z" fill="#71B1FF"/>
<path d="M674.251 149.93V227.272H660.942V216.624C656.505 223.131 648.963 228.899 638.02 228.899C621.457 228.899 612.141 217.512 612.141 201.097V149.93H625.45V198.287C625.45 209.23 630.182 216.624 641.569 216.624C651.181 216.624 660.942 209.378 660.942 196.512V149.93H674.251Z" fill="#71B1FF"/>
<path d="M509.781 227.273V121.094H543.498C575.737 121.094 596.144 141.797 596.144 174.183C596.144 206.57 575.737 227.273 543.498 227.273H509.781ZM523.682 214.999H543.498C567.603 214.999 582.243 198.88 582.243 174.183C582.243 149.339 567.603 133.368 543.35 133.368H523.682V214.999Z" fill="#71B1FF"/>
</svg>
