<svg width="1512" height="350" viewBox="0 0 1512 350" fill="none" xmlns="http://www.w3.org/2000/svg">
<path fill-rule="evenodd" clip-rule="evenodd" d="M218.031 103.004C223.106 102.051 228.382 101.612 233.786 101.758C272.037 102.784 303.436 133.779 304.957 172.009C306.605 213.83 273.191 248.269 231.734 248.269C227.063 248.269 222.483 247.829 218.05 246.986C184.122 240.575 158.457 210.771 158.457 174.995C158.457 139.219 184.104 109.415 218.031 103.004ZM233.768 231.178C232.998 232.167 233.804 233.596 235.05 233.522C265.9 231.8 290.356 206.265 290.356 174.995C290.356 143.726 265.882 118.19 235.032 116.468C233.786 116.394 232.998 117.823 233.768 118.813C245.84 134.31 253.021 153.819 253.021 174.995C253.021 196.171 245.822 215.662 233.768 231.178Z" fill="#E2DFE9"/>
<path d="M1291.43 227.277V149.932H1304.74V160.432C1309.18 154.073 1316.87 148.453 1327.81 148.453C1344.23 148.453 1353.54 159.84 1353.54 176.256V227.277H1340.23V179.805C1340.23 169.009 1335.65 160.876 1324.11 160.876C1314.5 160.876 1304.74 168.27 1304.74 181.136V227.277H1291.43Z" fill="#71B1FF"/>
<path d="M1274.51 188.679C1274.51 212.636 1259.72 228.904 1238.57 228.904C1217.42 228.904 1202.63 212.636 1202.63 188.679C1202.63 164.721 1217.42 148.453 1238.57 148.453C1259.72 148.453 1274.51 164.721 1274.51 188.679ZM1216.09 188.679C1216.09 206.277 1224.96 217.517 1238.57 217.517C1252.18 217.517 1261.05 206.277 1261.05 188.679C1261.05 170.932 1252.18 159.693 1238.57 159.693C1224.96 159.693 1216.09 170.932 1216.09 188.679Z" fill="#71B1FF"/>
<path d="M1171.84 136.474V121.094H1186.33V136.474H1171.84ZM1185.74 149.932V227.277H1172.43V149.932H1185.74Z" fill="#71B1FF"/>
<path d="M1124.24 208.791V161.319H1112.26V149.931H1124.24V127.305H1137.4V149.931H1155V161.319H1137.4V206.72C1137.4 214.854 1141.4 216.333 1148.2 216.333C1151.3 216.333 1153.52 216.185 1156.63 215.446V226.833C1153.23 227.572 1149.38 228.016 1144.94 228.016C1131.78 228.016 1124.24 223.579 1124.24 208.791Z" fill="#71B1FF"/>
<path d="M1063.7 228.608C1049.65 228.608 1038.26 220.326 1038.26 206.425C1038.26 191.045 1050.24 184.686 1067.54 181.136L1086.33 177.291V174.038C1086.33 165.164 1081.44 160.136 1071.09 160.136C1061.33 160.136 1055.56 164.721 1053.2 173.298L1040.63 170.045C1044.33 157.474 1055.71 148.453 1071.54 148.453C1088.84 148.453 1099.49 156.883 1099.49 173.446V211.157C1099.49 216.186 1102.59 217.812 1107.77 216.629V227.277C1095.94 228.756 1089.13 225.946 1087.51 218.552C1082.78 224.615 1074.2 228.608 1063.7 228.608ZM1086.33 200.953V187.643L1071.24 190.897C1059.41 193.263 1051.42 196.517 1051.42 205.833C1051.42 213.376 1056.9 217.812 1065.33 217.812C1076.71 217.812 1086.33 210.862 1086.33 200.953Z" fill="#71B1FF"/>
<path d="M996.139 208.791V161.319H984.16V149.931H996.139V127.305H1009.3V149.931H1026.9V161.319H1009.3V206.72C1009.3 214.854 1013.29 216.333 1020.1 216.333C1023.2 216.333 1025.42 216.185 1028.53 215.446V226.833C1025.13 227.572 1021.28 228.016 1016.84 228.016C1003.68 228.016 996.139 223.579 996.139 208.791Z" fill="#71B1FF"/>
<path d="M910.594 227.277V149.932H923.904V160.432C928.34 154.073 936.03 148.453 946.974 148.453C963.39 148.453 972.707 159.84 972.707 176.256V227.277H959.397V179.805C959.397 169.009 954.812 160.876 943.277 160.876C933.664 160.876 923.904 168.27 923.904 181.136V227.277H910.594Z" fill="#71B1FF"/>
<path d="M861.639 228.904C840.195 228.904 825.406 212.488 825.406 188.679C825.406 165.608 840.047 148.453 861.047 148.453C882.639 148.453 894.026 164.869 894.026 186.312V190.749H838.125C838.864 207.017 848.181 217.369 861.639 217.369C871.991 217.369 879.385 211.749 881.751 202.58L893.435 206.721C888.702 220.474 877.019 228.904 861.639 228.904ZM860.899 159.84C849.66 159.84 841.23 167.383 838.864 180.545H880.568C880.273 169.601 874.357 159.84 860.899 159.84Z" fill="#71B1FF"/>
<path d="M715.212 180.988V227.277H701.902V149.932H715.212V160.432C719.353 154.073 726.747 148.453 737.543 148.453C747.895 148.453 755.142 153.629 758.987 161.615C763.276 155.256 771.557 148.453 783.684 148.453C799.656 148.453 809.269 159.84 809.269 176.256V227.277H795.959V179.805C795.959 169.009 791.522 160.876 780.579 160.876C771.705 160.876 762.24 168.418 762.24 180.988V227.277H748.931V179.805C748.931 169.009 744.494 160.876 733.55 160.876C724.677 160.876 715.212 168.418 715.212 180.988Z" fill="#71B1FF"/>
<path d="M679.8 149.934V227.279H666.49V216.631C662.054 223.138 654.511 228.906 643.568 228.906C627.004 228.906 617.688 217.518 617.688 201.103V149.934H630.997V198.293C630.997 209.236 635.73 216.631 647.117 216.631C656.73 216.631 666.49 209.384 666.49 196.518V149.934H679.8Z" fill="#71B1FF"/>
<path d="M549.579 188.679C549.579 206.277 559.044 217.221 572.798 217.221C583.446 217.221 589.805 210.418 592.023 200.805L603.854 206.277C600.157 219.143 588.917 228.904 572.798 228.904C551.206 228.904 536.27 212.488 536.27 188.679C536.27 164.721 551.206 148.453 572.798 148.453C588.917 148.453 599.861 157.77 603.558 170.636L592.023 176.404C589.805 166.939 583.446 159.988 572.798 159.988C559.044 159.988 549.579 170.932 549.579 188.679Z" fill="#71B1FF"/>
<path d="M524.67 188.679C524.67 212.636 509.881 228.904 488.734 228.904C467.586 228.904 452.797 212.636 452.797 188.679C452.797 164.721 467.586 148.453 488.734 148.453C509.881 148.453 524.67 164.721 524.67 188.679ZM466.255 188.679C466.255 206.277 475.128 217.517 488.734 217.517C502.339 217.517 511.212 206.277 511.212 188.679C511.212 170.932 502.339 159.693 488.734 159.693C475.128 159.693 466.255 170.932 466.255 188.679Z" fill="#71B1FF"/>
<path d="M355.016 227.277V121.094H388.734C420.973 121.094 441.382 141.798 441.382 174.185C441.382 206.573 420.973 227.277 388.734 227.277H355.016ZM368.917 215.002H388.734C412.84 215.002 427.481 198.883 427.481 174.185C427.481 149.34 412.84 133.368 388.586 133.368H368.917V215.002Z" fill="#71B1FF"/>
</svg>
