<svg width="32" height="32" viewBox="0 0 32 32" fill="none" xmlns="http://www.w3.org/2000/svg">
<path d="M16.4476 0.00603199C15.2676 -0.02597 14.1157 0.0700359 13.0077 0.278049C5.59986 1.67813 0 8.18653 0 15.999C0 23.8115 5.60386 30.3199 13.0117 31.72C13.9797 31.904 14.9796 32 15.9996 32C25.0514 32 32.3472 24.4795 31.9872 15.347C31.6552 6.99846 24.7994 0.230046 16.4476 0.00603199ZM16.7236 28.7798C16.4516 28.7958 16.2756 28.4838 16.4436 28.2678C19.0755 24.8796 20.6475 20.6233 20.6475 15.999C20.6475 11.3747 19.0795 7.11447 16.4436 3.73026C16.2756 3.51425 16.4476 3.20223 16.7196 3.21823C23.4554 3.59425 28.7993 9.1706 28.7993 15.999C28.7993 22.8274 23.4594 28.4038 16.7236 28.7798Z" fill="#101010"/>
</svg>
