<svg width="294" height="374" viewBox="0 0 294 374" fill="none" xmlns="http://www.w3.org/2000/svg">
<g clip-path="url(#clip0_3063_72)">
<path d="M81.26 292.77H1V0.769989H293V292.77H212.74" stroke="#101010" stroke-miterlimit="10"/>
<path d="M85.8499 282.58H11.1899V10.95H282.82V282.58H208.15" stroke="#101010" stroke-miterlimit="10"/>
<path d="M90.1099 273.11H20.6599V20.43H273.34V273.11H203.89" stroke="#101010" stroke-miterlimit="10"/>
<path d="M94.08 264.3H29.47V29.24H264.53V264.3H199.92" stroke="#101010" stroke-miterlimit="10"/>
<path d="M97.7699 256.1H37.6699V37.44H256.33V256.1H196.23" stroke="#101010" stroke-miterlimit="10"/>
<path d="M101.21 248.47H45.3V45.06H248.71V248.47H192.79" stroke="#101010" stroke-miterlimit="10"/>
<path d="M104.4 241.38H52.3899V52.16H241.61V241.38H189.6" stroke="#101010" stroke-miterlimit="10"/>
<path d="M183.87 228.64H228.87V64.9H65.1299V228.64H110.13" stroke="#101010" stroke-miterlimit="10"/>
<path d="M107.37 234.78H58.99V58.76H235.01V234.78H186.63" stroke="#101010" stroke-miterlimit="10"/>
<path d="M248.7 373.32L147.01 146.76L147 146.77L45.3 373.32" stroke="#101010" stroke-miterlimit="10"/>
<path d="M147 146.77V373.32" stroke="#101010" stroke-miterlimit="10"/>
</g>
<defs>
<clipPath id="clip0_3063_72">
<rect width="293" height="373.26" fill="white" transform="translate(0.5 0.269989)"/>
</clipPath>
</defs>
</svg>
