<svg width="500" height="118" viewBox="0 0 500 118" fill="none" xmlns="http://www.w3.org/2000/svg">
<path fill-rule="evenodd" clip-rule="evenodd" d="M60.414 0.0235648C56.0798 -0.0936838 51.8485 0.258062 47.7788 1.02018C20.569 6.1498 0 29.9952 0 58.6186C0 87.2419 20.5837 111.087 47.7935 116.217C51.349 116.891 55.022 117.243 58.7685 117.243C92.0168 117.243 118.815 89.6894 117.493 56.2296C116.273 25.6424 91.0912 0.844305 60.414 0.0235648ZM61.4278 105.445C60.4287 105.503 59.7823 104.36 60.3993 103.569C70.0668 91.155 75.8408 75.561 75.8408 58.6186C75.8408 41.6761 70.0814 26.0674 60.3993 13.6684C59.7823 12.8769 60.414 11.7338 61.4131 11.7924C86.1546 13.1701 105.783 33.6006 105.783 58.6186C105.783 83.6365 86.1693 104.067 61.4278 105.445Z" fill="#101010"/>
<path d="M167.979 101.478H194.793C218.749 101.478 238.169 82.1077 238.169 58.2129C238.169 34.318 218.749 14.9474 194.793 14.9474H167.979V28.3203H194.793C211.345 28.3203 224.762 41.7037 224.762 58.2129C224.762 74.722 211.345 88.1054 194.793 88.1054H167.979V101.478Z" fill="#101010"/>
<path d="M363.002 100.506C367.24 101.981 372.017 102.719 377.334 102.719C383.771 102.719 389.348 101.742 394.065 99.7882C398.823 97.7943 402.481 94.8634 405.039 90.9953C407.638 87.0874 408.937 82.3221 408.937 76.6995C408.937 71.3161 407.758 67.0094 405.399 63.7794C403.08 60.5494 399.862 58.0172 395.744 56.1829C391.626 54.3485 386.169 52.594 379.373 50.9191C375.015 49.8424 371.597 48.8056 369.119 47.8087C366.64 46.7719 364.761 45.4759 363.482 43.9207C362.202 42.3257 361.563 40.2919 361.563 37.8196C361.563 35.3074 362.222 33.154 363.542 31.3595C364.861 29.565 366.74 28.2093 369.179 27.2921C371.657 26.335 374.536 25.8565 377.814 25.8565C380.732 25.8565 383.431 26.355 385.909 27.3519C388.388 28.3089 390.547 29.7246 392.386 31.5988C394.225 33.4331 395.664 35.6264 396.704 38.1785L407.798 31.0605C406.318 27.4317 404.2 24.3213 401.441 21.7293C398.683 19.0974 395.284 17.0836 391.247 15.6879C387.249 14.2922 382.711 13.5944 377.634 13.5944C371.717 13.5944 366.5 14.5913 361.982 16.5851C357.465 18.5391 353.927 21.4501 351.368 25.3182C348.85 29.1464 347.59 33.8119 347.59 39.315C347.59 44.1799 348.69 48.1876 350.888 51.3378C353.087 54.4482 356.166 56.9405 360.123 58.8148C364.121 60.649 369.358 62.3638 375.835 63.9589C380.352 65.0754 383.891 66.172 386.449 67.2487C389.048 68.3254 391.027 69.7211 392.386 71.4357C393.785 73.1505 394.485 75.4234 394.485 78.2547C394.485 80.7669 393.785 82.9203 392.386 84.7147C391.027 86.4693 389.048 87.8251 386.449 88.7822C383.851 89.7392 380.732 90.2177 377.094 90.2177C373.616 90.2177 370.478 89.6196 367.679 88.4233C364.921 87.227 362.542 85.612 360.543 83.5783C358.584 81.5445 357.005 79.1918 355.806 76.52L344.352 83.7577C346.351 87.8251 348.89 91.2745 351.968 94.1057C355.086 96.8971 358.764 99.0305 363.002 100.506Z" fill="#101010"/>
<path d="M272.886 99.1546C278.004 101.707 284.26 102.983 291.656 102.983C299.012 102.983 305.249 101.707 310.366 99.1546C315.483 96.5626 319.321 92.874 321.88 88.0888C324.439 83.3035 325.718 77.5413 325.718 70.8022V15.2936H311.865V70.0245C311.865 77.003 310.166 82.2268 306.768 85.6961C303.37 89.1654 298.333 90.9001 291.656 90.9001C284.98 90.9001 279.923 89.1654 276.484 85.6961C273.086 82.2268 271.387 77.003 271.387 70.0245V15.2936H257.475V70.8022C257.475 77.4616 258.774 83.2038 261.373 88.0289C263.971 92.854 267.809 96.5626 272.886 99.1546Z" fill="#101010"/>
<path d="M430.378 101.547V15.2936H444.23V54.2333H444.35C445.11 53.3959 445.949 52.5186 446.869 51.6014C447.828 50.6444 448.808 49.6475 449.807 48.6107L483.029 15.2936H500L464.139 51.6613L499.4 101.547H483.089L454.485 60.4541L444.23 70.3236V101.547H430.378Z" fill="#101010"/>
</svg>
