<svg width="120" height="30" viewBox="0 0 120 30" fill="none" xmlns="http://www.w3.org/2000/svg">
<path d="M14.5121 0.888135C13.471 0.859899 12.4546 0.944607 11.477 1.12814C4.9409 2.36347 0 8.10599 0 14.9991C0 21.8923 4.94442 27.6348 11.4805 28.8701C12.3346 29.0325 13.2169 29.1172 14.1168 29.1172C22.1034 29.1172 28.5407 22.4817 28.2231 14.4238C27.9302 7.05772 21.8811 1.08579 14.5121 0.888135ZM14.7556 26.2759C14.5156 26.29 14.3604 26.0147 14.5086 25.8241C16.8308 22.8346 18.2178 19.0792 18.2178 14.9991C18.2178 10.919 16.8343 7.16008 14.5086 4.17411C14.3604 3.98352 14.5121 3.70822 14.7521 3.72233C20.6953 4.05411 25.4103 8.97425 25.4103 14.9991C25.4103 21.024 20.6988 25.9441 14.7556 26.2759Z" fill="#E2DFE9"/>
<path d="M40.2451 25.4011H46.6861C52.4406 25.4011 57.1054 20.7362 57.1054 14.9818C57.1054 9.22733 52.4406 4.56246 46.6861 4.56246H40.2451V7.78297H46.6861C50.6619 7.78297 53.8849 11.006 53.8849 14.9818C53.8849 18.9575 50.6619 22.1806 46.6861 22.1806H40.2451V25.4011Z" fill="#E2DFE9"/>
<path d="M87.0917 25.1669C88.1096 25.5222 89.2572 25.6999 90.5344 25.6999C92.0806 25.6999 93.4202 25.4646 94.5534 24.994C95.6962 24.5139 96.5749 23.808 97.1895 22.8765C97.8137 21.9354 98.1258 20.7878 98.1258 19.4338C98.1258 18.1373 97.8425 17.1002 97.2759 16.3223C96.7189 15.5445 95.9459 14.9347 94.9567 14.4929C93.9676 14.0512 92.6567 13.6286 91.0242 13.2253C89.9774 12.966 89.1564 12.7163 88.561 12.4762C87.9656 12.2265 87.5142 11.9144 87.2069 11.5399C86.8996 11.1558 86.746 10.666 86.746 10.0706C86.746 9.4656 86.9044 8.94702 87.2213 8.51488C87.5382 8.08273 87.9896 7.75622 88.5754 7.53535C89.1708 7.30487 89.8622 7.18963 90.6497 7.18963C91.3507 7.18963 91.9989 7.30967 92.5943 7.54975C93.1897 7.78023 93.7083 8.12115 94.1501 8.5725C94.5918 9.01425 94.9375 9.54243 95.1872 10.157L97.8521 8.44286C97.4968 7.56896 96.9878 6.81991 96.3252 6.19569C95.6626 5.56188 94.8463 5.07692 93.8763 4.7408C92.916 4.40469 91.8261 4.23663 90.6065 4.23663C89.1852 4.23663 87.932 4.47671 86.8468 4.95687C85.7616 5.42744 84.9117 6.12847 84.2971 7.05999C83.6921 7.9819 83.3896 9.10548 83.3896 10.4307C83.3896 11.6023 83.6537 12.5674 84.1819 13.3261C84.7101 14.0752 85.4495 14.6754 86.4002 15.1267C87.3606 15.5685 88.6186 15.9814 90.1743 16.3655C91.2595 16.6344 92.1094 16.8985 92.724 17.1578C93.3482 17.4171 93.8236 17.7532 94.1501 18.1661C94.4862 18.5791 94.6542 19.1265 94.6542 19.8083C94.6542 20.4133 94.4862 20.9319 94.1501 21.364C93.8236 21.7866 93.3482 22.1131 92.724 22.3435C92.0998 22.574 91.3507 22.6893 90.4768 22.6893C89.6413 22.6893 88.8875 22.5452 88.2152 22.2571C87.5526 21.969 86.9812 21.5801 86.5011 21.0903C86.0305 20.6006 85.6512 20.034 85.3631 19.3905L82.6118 21.1335C83.0919 22.1131 83.7017 22.9437 84.4412 23.6256C85.1902 24.2978 86.0737 24.8116 87.0917 25.1669Z" fill="#E2DFE9"/>
<path d="M65.445 24.8415C66.6742 25.4561 68.1771 25.7634 69.9537 25.7634C71.7207 25.7634 73.2188 25.4561 74.448 24.8415C75.6772 24.2172 76.5991 23.3289 77.2137 22.1766C77.8283 21.0242 78.1356 19.6365 78.1356 18.0136V4.64583H74.8081V17.8263C74.8081 19.5069 74.4 20.7649 73.5837 21.6004C72.7674 22.4358 71.5574 22.8536 69.9537 22.8536C68.3499 22.8536 67.1351 22.4358 66.3092 21.6004C65.493 20.7649 65.0848 19.5069 65.0848 17.8263V4.64583H61.7429V18.0136C61.7429 19.6173 62.055 21.0002 62.6792 22.1622C63.3034 23.3241 64.2253 24.2172 65.445 24.8415Z" fill="#E2DFE9"/>
<path d="M103.276 25.4176V4.64583H106.604V14.0234H106.632C106.815 13.8217 107.017 13.6105 107.237 13.3896C107.468 13.1591 107.703 12.919 107.943 12.6694L115.924 4.64583H120L111.386 13.404L119.856 25.4176H115.938L109.067 15.5215L106.604 17.8983V25.4176H103.276Z" fill="#E2DFE9"/>
</svg>